<svg xmlns="http://www.w3.org/2000/svg" xmlns:xlink="http://www.w3.org/1999/xlink" width="1000" zoomAndPan="magnify" viewBox="0 0 750 749.999995" height="1000" preserveAspectRatio="xMidYMid meet" version="1.0"><defs><g/><clipPath id="747c84cf11"><path d="M 75 0 L 675 0 C 694.890625 0 713.96875 7.902344 728.03125 21.96875 C 742.097656 36.03125 750 55.109375 750 75 L 750 676.207031 C 750 696.097656 742.097656 715.175781 728.03125 729.238281 C 713.96875 743.304688 694.890625 751.207031 675 751.207031 L 75 751.207031 C 55.109375 751.207031 36.03125 743.304688 21.96875 729.238281 C 7.902344 715.175781 0 696.097656 0 676.207031 L 0 75 C 0 55.109375 7.902344 36.03125 21.96875 21.96875 C 36.03125 7.902344 55.109375 0 75 0 Z M 75 0 " clip-rule="nonzero"/></clipPath><clipPath id="7b77e52e6a"><path d="M 0 0 L 750 0 L 750 750 L 0 750 Z M 0 0 " clip-rule="nonzero"/></clipPath><clipPath id="517531dd79"><path d="M 75 0 L 675 0 C 694.890625 0 713.96875 7.902344 728.03125 21.96875 C 742.097656 36.03125 750 55.109375 750 75 L 750 676.207031 C 750 696.097656 742.097656 715.175781 728.03125 729.238281 C 713.96875 743.304688 694.890625 751.207031 675 751.207031 L 75 751.207031 C 55.109375 751.207031 36.03125 743.304688 21.96875 729.238281 C 7.902344 715.175781 0 696.097656 0 676.207031 L 0 75 C 0 55.109375 7.902344 36.03125 21.96875 21.96875 C 36.03125 7.902344 55.109375 0 75 0 Z M 75 0 " clip-rule="nonzero"/></clipPath><clipPath id="bd27fd8f4d"><rect x="0" width="750" y="0" height="750"/></clipPath></defs><g clip-path="url(#747c84cf11)"><g transform="matrix(1, 0, 0, 1, 0, -0.000000000000042435)"><g clip-path="url(#bd27fd8f4d)"><g clip-path="url(#7b77e52e6a)"><g clip-path="url(#517531dd79)"><rect x="-165" width="1080" fill="#7f77dd" height="1079.999992" y="-164.999999" fill-opacity="1"/></g></g></g></g></g><g fill="#15111e" fill-opacity="1"><g transform="translate(89.999998, 551.249993)"><g><path d="M 38 -163.875 C 38 -179.707031 40.132812 -193.957031 44.40625 -206.625 C 48.6875 -219.289062 54.625 -229.976562 62.21875 -238.6875 C 69.820312 -247.394531 79.003906 -254.125 89.765625 -258.875 C 100.535156 -263.625 112.570312 -266 125.875 -266 C 145.1875 -266 161.175781 -261.644531 173.84375 -252.9375 C 186.507812 -244.226562 194.90625 -231.957031 199.03125 -216.125 L 202.828125 -216.125 C 202.503906 -221.507812 202.1875 -226.894531 201.875 -232.28125 C 201.238281 -237.03125 200.84375 -242.015625 200.6875 -247.234375 C 200.53125 -252.460938 200.453125 -257.132812 200.453125 -261.25 L 200.453125 -346.75 L 243.203125 -346.75 L 243.203125 0 L 202.828125 0 L 202.828125 -45.125 L 199.03125 -45.125 C 194.90625 -29.289062 186.507812 -17.019531 173.84375 -8.3125 C 161.175781 0.394531 145.1875 4.75 125.875 4.75 C 112.570312 4.75 100.535156 2.371094 89.765625 -2.375 C 79.003906 -7.125 69.820312 -13.851562 62.21875 -22.5625 C 54.625 -31.269531 48.6875 -41.957031 44.40625 -54.625 C 40.132812 -67.289062 38 -81.539062 38 -97.375 Z M 142.03125 -32.296875 C 159.757812 -32.296875 173.925781 -38.15625 184.53125 -49.875 C 195.144531 -61.59375 200.453125 -77.425781 200.453125 -97.375 L 200.453125 -163.875 C 200.453125 -183.820312 195.144531 -199.65625 184.53125 -211.375 C 173.925781 -223.09375 159.757812 -228.953125 142.03125 -228.953125 C 122.707031 -228.953125 107.660156 -223.25 96.890625 -211.84375 C 86.128906 -200.445312 80.75 -184.457031 80.75 -163.875 L 80.75 -97.375 C 80.75 -77.425781 86.210938 -61.59375 97.140625 -49.875 C 108.066406 -38.15625 123.03125 -32.296875 142.03125 -32.296875 Z M 142.03125 -32.296875 "/></g></g></g><g fill="#15111e" fill-opacity="1"><g transform="translate(374.997989, 551.249993)"><g><path d="M 101.65625 -37.53125 C 101.65625 -49.875 105.375 -59.765625 112.8125 -67.203125 C 120.25 -74.648438 130.144531 -78.375 142.5 -78.375 C 154.851562 -78.375 164.75 -74.648438 172.1875 -67.203125 C 179.625 -59.765625 183.34375 -49.875 183.34375 -37.53125 C 183.34375 -24.863281 179.625 -14.648438 172.1875 -6.890625 C 164.75 0.867188 154.851562 4.75 142.5 4.75 C 130.144531 4.75 120.25 0.867188 112.8125 -6.890625 C 105.375 -14.648438 101.65625 -24.863281 101.65625 -37.53125 Z M 101.65625 -37.53125 "/></g></g></g></svg>