<svg xmlns="http://www.w3.org/2000/svg" xmlns:xlink="http://www.w3.org/1999/xlink" width="1250" zoomAndPan="magnify" viewBox="0 0 937.5 112.499997" height="150" preserveAspectRatio="xMidYMid meet" version="1.0"><defs><g/><clipPath id="b8262e4f9d"><path d="M 1.824219 0 L 113.648438 0 L 113.648438 112.003906 L 1.824219 112.003906 Z M 1.824219 0 " clip-rule="nonzero"/></clipPath><clipPath id="acc83a819e"><path d="M 24.226562 0 L 91.246094 0 C 103.617188 0 113.648438 10.027344 113.648438 22.402344 L 113.648438 89.601562 C 113.648438 101.972656 103.617188 112.003906 91.246094 112.003906 L 24.226562 112.003906 C 11.855469 112.003906 1.824219 101.972656 1.824219 89.601562 L 1.824219 22.402344 C 1.824219 10.027344 11.855469 0 24.226562 0 Z M 24.226562 0 " clip-rule="nonzero"/></clipPath><clipPath id="f8efcf8677"><path d="M 0.824219 0 L 112.648438 0 L 112.648438 112 L 0.824219 112 Z M 0.824219 0 " clip-rule="nonzero"/></clipPath><clipPath id="4fbdc423b1"><path d="M 23.226562 0 L 90.246094 0 C 102.617188 0 112.648438 10.027344 112.648438 22.402344 L 112.648438 89.601562 C 112.648438 101.972656 102.617188 112.003906 90.246094 112.003906 L 23.226562 112.003906 C 10.855469 112.003906 0.824219 101.972656 0.824219 89.601562 L 0.824219 22.402344 C 0.824219 10.027344 10.855469 0 23.226562 0 Z M 23.226562 0 " clip-rule="nonzero"/></clipPath><clipPath id="344e5c09dc"><rect x="0" width="113" y="0" height="113"/></clipPath></defs><g fill="#ffffff" fill-opacity="1"><g transform="translate(158.10197, 95.201868)"><g><path d="M 8.609375 -37.15625 C 8.609375 -40.738281 9.09375 -43.96875 10.0625 -46.84375 C 11.03125 -49.71875 12.375 -52.140625 14.09375 -54.109375 C 15.820312 -56.085938 17.90625 -57.613281 20.34375 -58.6875 C 22.789062 -59.769531 25.519531 -60.3125 28.53125 -60.3125 C 32.914062 -60.3125 36.539062 -59.320312 39.40625 -57.34375 C 42.28125 -55.363281 44.1875 -52.582031 45.125 -49 L 45.984375 -49 C 45.910156 -50.21875 45.835938 -51.4375 45.765625 -52.65625 C 45.617188 -53.738281 45.523438 -54.867188 45.484375 -56.046875 C 45.453125 -57.234375 45.4375 -58.296875 45.4375 -59.234375 L 45.4375 -78.609375 L 55.140625 -78.609375 L 55.140625 0 L 45.984375 0 L 45.984375 -10.234375 L 45.125 -10.234375 C 44.1875 -6.640625 42.28125 -3.851562 39.40625 -1.875 C 36.539062 0.0898438 32.914062 1.078125 28.53125 1.078125 C 25.519531 1.078125 22.789062 0.539062 20.34375 -0.53125 C 17.90625 -1.613281 15.820312 -3.140625 14.09375 -5.109375 C 12.375 -7.085938 11.03125 -9.507812 10.0625 -12.375 C 9.09375 -15.25 8.609375 -18.484375 8.609375 -22.078125 Z M 32.203125 -7.328125 C 36.222656 -7.328125 39.429688 -8.65625 41.828125 -11.3125 C 44.234375 -13.96875 45.4375 -17.554688 45.4375 -22.078125 L 45.4375 -37.15625 C 45.4375 -41.675781 44.234375 -45.265625 41.828125 -47.921875 C 39.429688 -50.578125 36.222656 -51.90625 32.203125 -51.90625 C 27.816406 -51.90625 24.40625 -50.613281 21.96875 -48.03125 C 19.53125 -45.445312 18.3125 -41.820312 18.3125 -37.15625 L 18.3125 -22.078125 C 18.3125 -17.554688 19.546875 -13.96875 22.015625 -11.3125 C 24.492188 -8.65625 27.890625 -7.328125 32.203125 -7.328125 Z M 32.203125 -7.328125 "/></g></g></g><g fill="#ffffff" fill-opacity="1"><g transform="translate(222.713207, 95.201868)"><g><path d="M 32.3125 1.078125 C 24.914062 1.078125 19.113281 -0.929688 14.90625 -4.953125 C 10.707031 -8.972656 8.609375 -14.5 8.609375 -21.53125 L 8.609375 -37.6875 C 8.609375 -44.726562 10.707031 -50.257812 14.90625 -54.28125 C 19.113281 -58.300781 24.914062 -60.3125 32.3125 -60.3125 C 39.695312 -60.3125 45.488281 -58.300781 49.6875 -54.28125 C 53.894531 -50.257812 56 -44.726562 56 -37.6875 L 56 -26.8125 L 18.3125 -26.8125 L 18.3125 -22.078125 C 18.3125 -17.554688 19.546875 -14 22.015625 -11.40625 C 24.492188 -8.820312 27.925781 -7.53125 32.3125 -7.53125 C 35.539062 -7.53125 38.335938 -8.03125 40.703125 -9.03125 C 43.078125 -10.039062 44.835938 -11.515625 45.984375 -13.453125 L 55.671875 -13.453125 C 54.453125 -8.929688 51.742188 -5.378906 47.546875 -2.796875 C 43.347656 -0.210938 38.269531 1.078125 32.3125 1.078125 Z M 46.3125 -34.890625 L 46.3125 -37.6875 C 46.3125 -42.144531 45.085938 -45.59375 42.640625 -48.03125 C 40.203125 -50.46875 36.757812 -51.6875 32.3125 -51.6875 C 27.851562 -51.6875 24.40625 -50.46875 21.96875 -48.03125 C 19.53125 -45.59375 18.3125 -42.144531 18.3125 -37.6875 L 18.3125 -34.890625 Z M 46.3125 -34.890625 "/></g></g></g><g fill="#ffffff" fill-opacity="1"><g transform="translate(287.324445, 95.201868)"><g><path d="M 6.46875 -44.46875 L 6.46875 -53.3125 L 23.6875 -53.3125 L 23.6875 -63.53125 C 23.6875 -68.269531 25.15625 -71.96875 28.09375 -74.625 C 31.039062 -77.28125 35.101562 -78.609375 40.28125 -78.609375 L 57.609375 -78.609375 L 57.609375 -69.78125 L 40.28125 -69.78125 C 35.6875 -69.78125 33.390625 -67.695312 33.390625 -63.53125 L 33.390625 -53.3125 L 57.609375 -53.3125 L 57.609375 -44.46875 L 33.390625 -44.46875 L 33.390625 0 L 23.6875 0 L 23.6875 -44.46875 Z M 6.46875 -44.46875 "/></g></g></g><g fill="#ffffff" fill-opacity="1"><g transform="translate(351.935693, 95.201868)"><g><path d="M 6.671875 -59.234375 L 14.328125 -59.234375 L 14.328125 -50.5 L 15.078125 -50.5 C 15.359375 -53.664062 16.359375 -56.09375 18.078125 -57.78125 C 19.804688 -59.46875 22.109375 -60.3125 24.984375 -60.3125 C 27.859375 -60.3125 30.226562 -59.46875 32.09375 -57.78125 C 33.957031 -56.09375 35.25 -53.664062 35.96875 -50.5 L 36.5 -50.5 C 36.789062 -53.664062 37.796875 -56.09375 39.515625 -57.78125 C 41.242188 -59.46875 43.539062 -60.3125 46.40625 -60.3125 C 50.070312 -60.3125 52.910156 -58.960938 54.921875 -56.265625 C 56.929688 -53.578125 57.9375 -49.863281 57.9375 -45.125 L 57.9375 0 L 49.53125 0 L 49.53125 -45.125 C 49.53125 -47.632812 48.972656 -49.550781 47.859375 -50.875 C 46.753906 -52.207031 45.160156 -52.875 43.078125 -52.875 C 38.691406 -52.875 36.5 -50.109375 36.5 -44.578125 L 36.5 0 L 28.109375 0 L 28.109375 -45.125 C 28.109375 -47.207031 27.625 -49.019531 26.65625 -50.5625 C 25.6875 -52.101562 24.015625 -52.875 21.640625 -52.875 C 19.492188 -52.875 17.804688 -52.082031 16.578125 -50.5 C 15.578125 -49.070312 15.078125 -47.097656 15.078125 -44.578125 L 15.078125 0 L 6.671875 0 Z M 6.671875 -59.234375 "/></g></g></g><g fill="#ffffff" fill-opacity="1"><g transform="translate(416.546919, 95.201868)"><g><path d="M 18.3125 -22.078125 C 18.3125 -17.554688 19.546875 -14 22.015625 -11.40625 C 24.492188 -8.820312 27.925781 -7.53125 32.3125 -7.53125 C 36.613281 -7.53125 40.019531 -8.820312 42.53125 -11.40625 C 45.050781 -14 46.3125 -17.554688 46.3125 -22.078125 L 46.3125 -37.15625 C 46.3125 -41.675781 45.050781 -45.226562 42.53125 -47.8125 C 40.019531 -50.394531 36.613281 -51.6875 32.3125 -51.6875 C 28 -51.6875 24.585938 -50.394531 22.078125 -47.8125 C 19.566406 -45.226562 18.3125 -41.675781 18.3125 -37.15625 Z M 8.609375 -37.15625 C 8.609375 -40.738281 9.164062 -43.945312 10.28125 -46.78125 C 11.394531 -49.625 12.972656 -52.050781 15.015625 -54.0625 C 17.066406 -56.070312 19.546875 -57.613281 22.453125 -58.6875 C 25.359375 -59.769531 28.644531 -60.3125 32.3125 -60.3125 C 39.632812 -60.3125 45.410156 -58.265625 49.640625 -54.171875 C 53.878906 -50.078125 56 -44.441406 56 -37.265625 L 56 -22.078125 C 56 -18.484375 55.457031 -15.25 54.375 -12.375 C 53.300781 -9.507812 51.738281 -7.085938 49.6875 -5.109375 C 47.644531 -3.140625 45.148438 -1.613281 42.203125 -0.53125 C 39.265625 0.539062 35.96875 1.078125 32.3125 1.078125 C 28.644531 1.078125 25.359375 0.539062 22.453125 -0.53125 C 19.546875 -1.613281 17.066406 -3.160156 15.015625 -5.171875 C 12.972656 -7.179688 11.394531 -9.617188 10.28125 -12.484375 C 9.164062 -15.359375 8.609375 -18.554688 8.609375 -22.078125 Z M 8.609375 -37.15625 "/></g></g></g><g fill="#ffffff" fill-opacity="1"><g transform="translate(481.158145, 95.201868)"><g><path d="M 8.609375 -37.15625 C 8.609375 -40.738281 9.09375 -43.96875 10.0625 -46.84375 C 11.03125 -49.71875 12.375 -52.140625 14.09375 -54.109375 C 15.820312 -56.085938 17.90625 -57.613281 20.34375 -58.6875 C 22.789062 -59.769531 25.519531 -60.3125 28.53125 -60.3125 C 32.914062 -60.3125 36.539062 -59.320312 39.40625 -57.34375 C 42.28125 -55.363281 44.1875 -52.582031 45.125 -49 L 45.984375 -49 C 45.910156 -50.21875 45.835938 -51.4375 45.765625 -52.65625 C 45.617188 -53.738281 45.523438 -54.867188 45.484375 -56.046875 C 45.453125 -57.234375 45.4375 -58.296875 45.4375 -59.234375 L 45.4375 -78.609375 L 55.140625 -78.609375 L 55.140625 0 L 45.984375 0 L 45.984375 -10.234375 L 45.125 -10.234375 C 44.1875 -6.640625 42.28125 -3.851562 39.40625 -1.875 C 36.539062 0.0898438 32.914062 1.078125 28.53125 1.078125 C 25.519531 1.078125 22.789062 0.539062 20.34375 -0.53125 C 17.90625 -1.613281 15.820312 -3.140625 14.09375 -5.109375 C 12.375 -7.085938 11.03125 -9.507812 10.0625 -12.375 C 9.09375 -15.25 8.609375 -18.484375 8.609375 -22.078125 Z M 32.203125 -7.328125 C 36.222656 -7.328125 39.429688 -8.65625 41.828125 -11.3125 C 44.234375 -13.96875 45.4375 -17.554688 45.4375 -22.078125 L 45.4375 -37.15625 C 45.4375 -41.675781 44.234375 -45.265625 41.828125 -47.921875 C 39.429688 -50.578125 36.222656 -51.90625 32.203125 -51.90625 C 27.816406 -51.90625 24.40625 -50.613281 21.96875 -48.03125 C 19.53125 -45.445312 18.3125 -41.820312 18.3125 -37.15625 L 18.3125 -22.078125 C 18.3125 -17.554688 19.546875 -13.96875 22.015625 -11.3125 C 24.492188 -8.65625 27.890625 -7.328125 32.203125 -7.328125 Z M 32.203125 -7.328125 "/></g></g></g><g fill="#ffffff" fill-opacity="1"><g transform="translate(545.769417, 95.201868)"><g><path d="M 9.6875 -59.234375 L 19.390625 -59.234375 L 19.390625 -20.890625 C 19.390625 -11.921875 23.660156 -7.4375 32.203125 -7.4375 C 40.890625 -7.4375 45.234375 -11.921875 45.234375 -20.890625 L 45.234375 -59.234375 L 54.921875 -59.234375 L 54.921875 -20.890625 C 54.921875 -13.859375 52.960938 -8.4375 49.046875 -4.625 C 45.140625 -0.820312 39.523438 1.078125 32.203125 1.078125 C 25.023438 1.078125 19.476562 -0.84375 15.5625 -4.6875 C 11.644531 -8.53125 9.6875 -13.929688 9.6875 -20.890625 Z M 9.6875 -59.234375 "/></g></g></g><g fill="#ffffff" fill-opacity="1"><g transform="translate(610.380643, 95.201868)"><g><path d="M 33.59375 -78.609375 L 33.59375 -17.234375 C 33.59375 -14.578125 34.3125 -12.507812 35.75 -11.03125 C 37.1875 -9.5625 39.160156 -8.828125 41.671875 -8.828125 L 59.234375 -8.828125 L 59.234375 0 L 41.671875 0 C 36.148438 0 31.804688 -1.523438 28.640625 -4.578125 C 25.484375 -7.628906 23.90625 -11.847656 23.90625 -17.234375 L 23.90625 -69.78125 L 4.3125 -69.78125 L 4.3125 -78.609375 Z M 33.59375 -78.609375 "/></g></g></g><g fill="#ffffff" fill-opacity="1"><g transform="translate(674.991869, 95.201868)"><g><path d="M 32.3125 1.078125 C 24.914062 1.078125 19.113281 -0.929688 14.90625 -4.953125 C 10.707031 -8.972656 8.609375 -14.5 8.609375 -21.53125 L 8.609375 -37.6875 C 8.609375 -44.726562 10.707031 -50.257812 14.90625 -54.28125 C 19.113281 -58.300781 24.914062 -60.3125 32.3125 -60.3125 C 39.695312 -60.3125 45.488281 -58.300781 49.6875 -54.28125 C 53.894531 -50.257812 56 -44.726562 56 -37.6875 L 56 -26.8125 L 18.3125 -26.8125 L 18.3125 -22.078125 C 18.3125 -17.554688 19.546875 -14 22.015625 -11.40625 C 24.492188 -8.820312 27.925781 -7.53125 32.3125 -7.53125 C 35.539062 -7.53125 38.335938 -8.03125 40.703125 -9.03125 C 43.078125 -10.039062 44.835938 -11.515625 45.984375 -13.453125 L 55.671875 -13.453125 C 54.453125 -8.929688 51.742188 -5.378906 47.546875 -2.796875 C 43.347656 -0.210938 38.269531 1.078125 32.3125 1.078125 Z M 46.3125 -34.890625 L 46.3125 -37.6875 C 46.3125 -42.144531 45.085938 -45.59375 42.640625 -48.03125 C 40.203125 -50.46875 36.757812 -51.6875 32.3125 -51.6875 C 27.851562 -51.6875 24.40625 -50.46875 21.96875 -48.03125 C 19.53125 -45.59375 18.3125 -42.144531 18.3125 -37.6875 L 18.3125 -34.890625 Z M 46.3125 -34.890625 "/></g></g></g><g fill="#7f77dd" fill-opacity="1"><g transform="translate(739.603415, 95.201868)"><g><path d="M 23.046875 -8.5 C 23.046875 -11.300781 23.890625 -13.546875 25.578125 -15.234375 C 27.265625 -16.921875 29.507812 -17.765625 32.3125 -17.765625 C 35.101562 -17.765625 37.34375 -16.921875 39.03125 -15.234375 C 40.71875 -13.546875 41.5625 -11.300781 41.5625 -8.5 C 41.5625 -5.632812 40.71875 -3.320312 39.03125 -1.5625 C 37.34375 0.195312 35.101562 1.078125 32.3125 1.078125 C 29.507812 1.078125 27.265625 0.195312 25.578125 -1.5625 C 23.890625 -3.320312 23.046875 -5.632812 23.046875 -8.5 Z M 23.046875 -8.5 "/></g></g></g><g fill="#7f77dd" fill-opacity="1"><g transform="translate(804.214652, 95.201868)"><g><path d="M 10.234375 0 L 10.234375 -8.828125 L 31.765625 -8.828125 L 31.765625 -50.390625 L 12.921875 -50.390625 L 12.921875 -59.234375 L 41.453125 -59.234375 L 41.453125 -8.828125 L 59.234375 -8.828125 L 59.234375 0 Z M 33.921875 -82.375 L 36.078125 -82.375 C 38.160156 -82.375 39.847656 -81.765625 41.140625 -80.546875 C 42.429688 -79.328125 43.078125 -77.75 43.078125 -75.8125 C 43.078125 -73.875 42.429688 -72.328125 41.140625 -71.171875 C 39.847656 -70.023438 38.160156 -69.453125 36.078125 -69.453125 L 33.921875 -69.453125 C 31.835938 -69.453125 30.148438 -70.007812 28.859375 -71.125 C 27.566406 -72.238281 26.921875 -73.800781 26.921875 -75.8125 C 26.921875 -77.75 27.566406 -79.328125 28.859375 -80.546875 C 30.148438 -81.765625 31.835938 -82.375 33.921875 -82.375 Z M 33.921875 -82.375 "/></g></g></g><g fill="#7f77dd" fill-opacity="1"><g transform="translate(868.82589, 95.201868)"><g><path d="M 18.3125 -22.078125 C 18.3125 -17.554688 19.546875 -14 22.015625 -11.40625 C 24.492188 -8.820312 27.925781 -7.53125 32.3125 -7.53125 C 36.613281 -7.53125 40.019531 -8.820312 42.53125 -11.40625 C 45.050781 -14 46.3125 -17.554688 46.3125 -22.078125 L 46.3125 -37.15625 C 46.3125 -41.675781 45.050781 -45.226562 42.53125 -47.8125 C 40.019531 -50.394531 36.613281 -51.6875 32.3125 -51.6875 C 28 -51.6875 24.585938 -50.394531 22.078125 -47.8125 C 19.566406 -45.226562 18.3125 -41.675781 18.3125 -37.15625 Z M 8.609375 -37.15625 C 8.609375 -40.738281 9.164062 -43.945312 10.28125 -46.78125 C 11.394531 -49.625 12.972656 -52.050781 15.015625 -54.0625 C 17.066406 -56.070312 19.546875 -57.613281 22.453125 -58.6875 C 25.359375 -59.769531 28.644531 -60.3125 32.3125 -60.3125 C 39.632812 -60.3125 45.410156 -58.265625 49.640625 -54.171875 C 53.878906 -50.078125 56 -44.441406 56 -37.265625 L 56 -22.078125 C 56 -18.484375 55.457031 -15.25 54.375 -12.375 C 53.300781 -9.507812 51.738281 -7.085938 49.6875 -5.109375 C 47.644531 -3.140625 45.148438 -1.613281 42.203125 -0.53125 C 39.265625 0.539062 35.96875 1.078125 32.3125 1.078125 C 28.644531 1.078125 25.359375 0.539062 22.453125 -0.53125 C 19.546875 -1.613281 17.066406 -3.160156 15.015625 -5.171875 C 12.972656 -7.179688 11.394531 -9.617188 10.28125 -12.484375 C 9.164062 -15.359375 8.609375 -18.554688 8.609375 -22.078125 Z M 8.609375 -37.15625 "/></g></g></g><g clip-path="url(#b8262e4f9d)"><g clip-path="url(#acc83a819e)"><g transform="matrix(1, 0, 0, 1, 1, 0)"><g clip-path="url(#344e5c09dc)"><g clip-path="url(#f8efcf8677)"><g clip-path="url(#4fbdc423b1)"><path fill="#7f77dd" d="M 0.824219 0 L 112.648438 0 L 112.648438 111.824219 L 0.824219 111.824219 Z M 0.824219 0 " fill-opacity="1" fill-rule="nonzero"/></g></g></g></g></g></g><g fill="#15111e" fill-opacity="1"><g transform="translate(21.950631, 77.654862)"><g><path d="M 4.765625 -20.578125 C 4.765625 -22.566406 5.03125 -24.351562 5.5625 -25.9375 C 6.101562 -27.53125 6.851562 -28.875 7.8125 -29.96875 C 8.769531 -31.0625 9.921875 -31.90625 11.265625 -32.5 C 12.617188 -33.101562 14.132812 -33.40625 15.8125 -33.40625 C 18.226562 -33.40625 20.234375 -32.859375 21.828125 -31.765625 C 23.421875 -30.671875 24.472656 -29.128906 24.984375 -27.140625 L 25.46875 -27.140625 C 25.425781 -27.816406 25.382812 -28.492188 25.34375 -29.171875 C 25.269531 -29.765625 25.222656 -30.390625 25.203125 -31.046875 C 25.179688 -31.703125 25.171875 -32.285156 25.171875 -32.796875 L 25.171875 -43.53125 L 30.53125 -43.53125 L 30.53125 0 L 25.46875 0 L 25.46875 -5.671875 L 24.984375 -5.671875 C 24.472656 -3.679688 23.421875 -2.140625 21.828125 -1.046875 C 20.234375 0.0429688 18.226562 0.59375 15.8125 0.59375 C 14.132812 0.59375 12.617188 0.292969 11.265625 -0.296875 C 9.921875 -0.890625 8.769531 -1.734375 7.8125 -2.828125 C 6.851562 -3.921875 6.101562 -5.265625 5.5625 -6.859375 C 5.03125 -8.453125 4.765625 -10.238281 4.765625 -12.21875 Z M 17.828125 -4.0625 C 20.054688 -4.0625 21.835938 -4.796875 23.171875 -6.265625 C 24.503906 -7.734375 25.171875 -9.71875 25.171875 -12.21875 L 25.171875 -20.578125 C 25.171875 -23.078125 24.503906 -25.0625 23.171875 -26.53125 C 21.835938 -28.007812 20.054688 -28.75 17.828125 -28.75 C 15.398438 -28.75 13.507812 -28.03125 12.15625 -26.59375 C 10.8125 -25.164062 10.140625 -23.160156 10.140625 -20.578125 L 10.140625 -12.21875 C 10.140625 -9.71875 10.820312 -7.734375 12.1875 -6.265625 C 13.5625 -4.796875 15.441406 -4.0625 17.828125 -4.0625 Z M 17.828125 -4.0625 "/></g></g></g><g fill="#15111e" fill-opacity="1"><g transform="translate(57.728285, 77.654862)"><g><path d="M 12.765625 -4.71875 C 12.765625 -6.257812 13.226562 -7.5 14.15625 -8.4375 C 15.09375 -9.375 16.335938 -9.84375 17.890625 -9.84375 C 19.441406 -9.84375 20.679688 -9.375 21.609375 -8.4375 C 22.546875 -7.5 23.015625 -6.257812 23.015625 -4.71875 C 23.015625 -3.125 22.546875 -1.835938 21.609375 -0.859375 C 20.679688 0.105469 19.441406 0.59375 17.890625 0.59375 C 16.335938 0.59375 15.09375 0.105469 14.15625 -0.859375 C 13.226562 -1.835938 12.765625 -3.125 12.765625 -4.71875 Z M 12.765625 -4.71875 "/></g></g></g></svg>