<svg xmlns="http://www.w3.org/2000/svg" xmlns:xlink="http://www.w3.org/1999/xlink" width="2000" zoomAndPan="magnify" viewBox="0 0 1500 1499.999933" height="2000" preserveAspectRatio="xMidYMid meet" version="1.0"><defs><g/><clipPath id="cfd0564aa4"><path d="M 75 0 L 1425 0 C 1466.421875 0 1500 33.578125 1500 75 L 1500 1427.414062 C 1500 1468.835938 1466.421875 1502.414062 1425 1502.414062 L 75 1502.414062 C 33.578125 1502.414062 0 1468.835938 0 1427.414062 L 0 75 C 0 33.578125 33.578125 0 75 0 Z M 75 0 " clip-rule="nonzero"/></clipPath><clipPath id="c622ee94c5"><path d="M 0 0 L 1500 0 L 1500 1500 L 0 1500 Z M 0 0 " clip-rule="nonzero"/></clipPath><clipPath id="b366cf4679"><path d="M 75 0 L 1425 0 C 1466.421875 0 1500 33.578125 1500 75 L 1500 1427.414062 C 1500 1468.835938 1466.421875 1502.414062 1425 1502.414062 L 75 1502.414062 C 33.578125 1502.414062 0 1468.835938 0 1427.414062 L 0 75 C 0 33.578125 33.578125 0 75 0 Z M 75 0 " clip-rule="nonzero"/></clipPath><clipPath id="e9ef31ceac"><rect x="0" width="1500" y="0" height="1500"/></clipPath></defs><rect x="-150" width="1800" fill="#ffffff" y="-149.999993" height="1799.99992" fill-opacity="1"/><rect x="-150" width="1800" fill="#ffffff" y="-149.999993" height="1799.99992" fill-opacity="1"/><g clip-path="url(#cfd0564aa4)"><g transform="matrix(1, 0, 0, 1, 0, 0.000000000000112861)"><g clip-path="url(#e9ef31ceac)"><g clip-path="url(#c622ee94c5)"><g clip-path="url(#b366cf4679)"><rect x="-330" width="2160" fill="#7f77dd" height="2159.999904" y="-329.999985" fill-opacity="1"/></g></g></g></g></g><g fill="#15111e" fill-opacity="1"><g transform="translate(269.988295, 1046.24989)"><g><path d="M 64 -276 C 64 -302.664062 67.597656 -326.664062 74.796875 -348 C 81.992188 -369.332031 91.992188 -387.332031 104.796875 -402 C 117.597656 -416.664062 133.066406 -428 151.203125 -436 C 169.335938 -444 189.601562 -448 212 -448 C 244.53125 -448 271.460938 -440.664062 292.796875 -426 C 314.128906 -411.332031 328.265625 -390.664062 335.203125 -364 L 341.59375 -364 C 341.0625 -373.0625 340.53125 -382.128906 340 -391.203125 C 338.9375 -399.203125 338.269531 -407.597656 338 -416.390625 C 337.726562 -425.191406 337.59375 -433.0625 337.59375 -440 L 337.59375 -584 L 409.59375 -584 L 409.59375 0 L 341.59375 0 L 341.59375 -76 L 335.203125 -76 C 328.265625 -49.332031 314.128906 -28.664062 292.796875 -14 C 271.460938 0.664062 244.53125 8 212 8 C 189.601562 8 169.335938 3.996094 151.203125 -4 C 133.066406 -12 117.597656 -23.332031 104.796875 -38 C 91.992188 -52.664062 81.992188 -70.664062 74.796875 -92 C 67.597656 -113.332031 64 -137.332031 64 -164 Z M 239.203125 -54.40625 C 269.066406 -54.40625 292.929688 -64.269531 310.796875 -84 C 328.660156 -103.726562 337.59375 -130.394531 337.59375 -164 L 337.59375 -276 C 337.59375 -309.601562 328.660156 -336.269531 310.796875 -356 C 292.929688 -375.726562 269.066406 -385.59375 239.203125 -385.59375 C 206.671875 -385.59375 181.335938 -375.992188 163.203125 -356.796875 C 145.066406 -337.597656 136 -310.664062 136 -276 L 136 -164 C 136 -130.394531 145.195312 -103.726562 163.59375 -84 C 182 -64.269531 207.203125 -54.40625 239.203125 -54.40625 Z M 239.203125 -54.40625 "/></g></g></g><g fill="#15111e" fill-opacity="1"><g transform="translate(749.988944, 1046.24989)"><g><path d="M 171.203125 -63.203125 C 171.203125 -84.003906 177.46875 -100.671875 190 -113.203125 C 202.53125 -125.734375 219.195312 -132 240 -132 C 260.800781 -132 277.46875 -125.734375 290 -113.203125 C 302.53125 -100.671875 308.796875 -84.003906 308.796875 -63.203125 C 308.796875 -41.867188 302.53125 -24.664062 290 -11.59375 C 277.46875 1.464844 260.800781 8 240 8 C 219.195312 8 202.53125 1.464844 190 -11.59375 C 177.46875 -24.664062 171.203125 -41.867188 171.203125 -63.203125 Z M 171.203125 -63.203125 "/></g></g></g></svg>