<svg xmlns="http://www.w3.org/2000/svg" xmlns:xlink="http://www.w3.org/1999/xlink" width="1000" zoomAndPan="magnify" viewBox="0 0 750 112.499997" height="150" preserveAspectRatio="xMidYMid meet" version="1.0"><defs><g/></defs><g fill="#ffffff" fill-opacity="1"><g transform="translate(5.217706, 87.023682)"><g><path d="M 8.21875 -35.4375 C 8.21875 -38.863281 8.675781 -41.945312 9.59375 -44.6875 C 10.519531 -47.425781 11.804688 -49.734375 13.453125 -51.609375 C 15.097656 -53.492188 17.082031 -54.945312 19.40625 -55.96875 C 21.738281 -57 24.34375 -57.515625 27.21875 -57.515625 C 31.394531 -57.515625 34.851562 -56.570312 37.59375 -54.6875 C 40.332031 -52.8125 42.148438 -50.160156 43.046875 -46.734375 L 43.859375 -46.734375 C 43.796875 -47.898438 43.726562 -49.066406 43.65625 -50.234375 C 43.519531 -51.253906 43.429688 -52.328125 43.390625 -53.453125 C 43.359375 -54.585938 43.34375 -55.601562 43.34375 -56.5 L 43.34375 -74.984375 L 52.59375 -74.984375 L 52.59375 0 L 43.859375 0 L 43.859375 -9.765625 L 43.046875 -9.765625 C 42.148438 -6.335938 40.332031 -3.679688 37.59375 -1.796875 C 34.851562 0.0859375 31.394531 1.03125 27.21875 1.03125 C 24.34375 1.03125 21.738281 0.519531 19.40625 -0.5 C 17.082031 -1.53125 15.097656 -2.988281 13.453125 -4.875 C 11.804688 -6.757812 10.519531 -9.070312 9.59375 -11.8125 C 8.675781 -14.550781 8.21875 -17.632812 8.21875 -21.0625 Z M 30.71875 -6.984375 C 34.550781 -6.984375 37.613281 -8.25 39.90625 -10.78125 C 42.195312 -13.320312 43.34375 -16.75 43.34375 -21.0625 L 43.34375 -35.4375 C 43.34375 -39.75 42.195312 -43.171875 39.90625 -45.703125 C 37.613281 -48.242188 34.550781 -49.515625 30.71875 -49.515625 C 26.539062 -49.515625 23.285156 -48.28125 20.953125 -45.8125 C 18.628906 -43.34375 17.46875 -39.882812 17.46875 -35.4375 L 17.46875 -21.0625 C 17.46875 -16.75 18.644531 -13.320312 21 -10.78125 C 23.363281 -8.25 26.601562 -6.984375 30.71875 -6.984375 Z M 30.71875 -6.984375 "/></g></g></g><g fill="#ffffff" fill-opacity="1"><g transform="translate(66.846924, 87.023682)"><g><path d="M 30.8125 1.03125 C 23.757812 1.03125 18.226562 -0.882812 14.21875 -4.71875 C 10.21875 -8.5625 8.21875 -13.835938 8.21875 -20.546875 L 8.21875 -35.953125 C 8.21875 -42.660156 10.21875 -47.929688 14.21875 -51.765625 C 18.226562 -55.597656 23.757812 -57.515625 30.8125 -57.515625 C 37.863281 -57.515625 43.390625 -55.597656 47.390625 -51.765625 C 51.398438 -47.929688 53.40625 -42.660156 53.40625 -35.953125 L 53.40625 -25.578125 L 17.46875 -25.578125 L 17.46875 -21.0625 C 17.46875 -16.75 18.644531 -13.359375 21 -10.890625 C 23.363281 -8.421875 26.632812 -7.1875 30.8125 -7.1875 C 33.894531 -7.1875 36.566406 -7.664062 38.828125 -8.625 C 41.085938 -9.582031 42.765625 -10.988281 43.859375 -12.84375 L 53.109375 -12.84375 C 51.941406 -8.53125 49.351562 -5.140625 45.34375 -2.671875 C 41.34375 -0.203125 36.5 1.03125 30.8125 1.03125 Z M 44.171875 -33.28125 L 44.171875 -35.953125 C 44.171875 -40.191406 43.003906 -43.476562 40.671875 -45.8125 C 38.347656 -48.144531 35.0625 -49.3125 30.8125 -49.3125 C 26.570312 -49.3125 23.285156 -48.144531 20.953125 -45.8125 C 18.628906 -43.476562 17.46875 -40.191406 17.46875 -35.953125 L 17.46875 -33.28125 Z M 44.171875 -33.28125 "/></g></g></g><g fill="#ffffff" fill-opacity="1"><g transform="translate(128.476141, 87.023682)"><g><path d="M 6.15625 -42.421875 L 6.15625 -50.84375 L 22.59375 -50.84375 L 22.59375 -60.609375 C 22.59375 -65.128906 23.992188 -68.65625 26.796875 -71.1875 C 29.609375 -73.71875 33.484375 -74.984375 38.421875 -74.984375 L 54.953125 -74.984375 L 54.953125 -66.5625 L 38.421875 -66.5625 C 34.035156 -66.5625 31.84375 -64.578125 31.84375 -60.609375 L 31.84375 -50.84375 L 54.953125 -50.84375 L 54.953125 -42.421875 L 31.84375 -42.421875 L 31.84375 0 L 22.59375 0 L 22.59375 -42.421875 Z M 6.15625 -42.421875 "/></g></g></g><g fill="#ffffff" fill-opacity="1"><g transform="translate(190.105359, 87.023682)"><g><path d="M 6.375 -56.5 L 13.65625 -56.5 L 13.65625 -48.171875 L 14.375 -48.171875 C 14.65625 -51.179688 15.613281 -53.488281 17.25 -55.09375 C 18.894531 -56.707031 21.085938 -57.515625 23.828125 -57.515625 C 26.566406 -57.515625 28.828125 -56.707031 30.609375 -55.09375 C 32.390625 -53.488281 33.625 -51.179688 34.3125 -48.171875 L 34.828125 -48.171875 C 35.097656 -51.179688 36.050781 -53.488281 37.6875 -55.09375 C 39.332031 -56.707031 41.523438 -57.515625 44.265625 -57.515625 C 47.765625 -57.515625 50.472656 -56.226562 52.390625 -53.65625 C 54.304688 -51.09375 55.265625 -47.554688 55.265625 -43.046875 L 55.265625 0 L 47.25 0 L 47.25 -43.046875 C 47.25 -45.441406 46.71875 -47.269531 45.65625 -48.53125 C 44.59375 -49.800781 43.070312 -50.4375 41.09375 -50.4375 C 36.914062 -50.4375 34.828125 -47.800781 34.828125 -42.53125 L 34.828125 0 L 26.8125 0 L 26.8125 -43.046875 C 26.8125 -45.023438 26.347656 -46.75 25.421875 -48.21875 C 24.492188 -49.695312 22.898438 -50.4375 20.640625 -50.4375 C 18.585938 -50.4375 16.976562 -49.679688 15.8125 -48.171875 C 14.851562 -46.804688 14.375 -44.925781 14.375 -42.53125 L 14.375 0 L 6.375 0 Z M 6.375 -56.5 "/></g></g></g><g fill="#ffffff" fill-opacity="1"><g transform="translate(251.734576, 87.023682)"><g><path d="M 17.46875 -21.0625 C 17.46875 -16.75 18.644531 -13.359375 21 -10.890625 C 23.363281 -8.421875 26.632812 -7.1875 30.8125 -7.1875 C 34.925781 -7.1875 38.179688 -8.421875 40.578125 -10.890625 C 42.972656 -13.359375 44.171875 -16.75 44.171875 -21.0625 L 44.171875 -35.4375 C 44.171875 -39.75 42.972656 -43.140625 40.578125 -45.609375 C 38.179688 -48.078125 34.925781 -49.3125 30.8125 -49.3125 C 26.707031 -49.3125 23.457031 -48.078125 21.0625 -45.609375 C 18.664062 -43.140625 17.46875 -39.75 17.46875 -35.4375 Z M 8.21875 -35.4375 C 8.21875 -38.863281 8.75 -41.925781 9.8125 -44.625 C 10.875 -47.332031 12.378906 -49.644531 14.328125 -51.5625 C 16.273438 -53.476562 18.632812 -54.945312 21.40625 -55.96875 C 24.1875 -57 27.320312 -57.515625 30.8125 -57.515625 C 37.800781 -57.515625 43.3125 -55.5625 47.34375 -51.65625 C 51.382812 -47.757812 53.40625 -42.390625 53.40625 -35.546875 L 53.40625 -21.0625 C 53.40625 -17.632812 52.890625 -14.550781 51.859375 -11.8125 C 50.835938 -9.070312 49.351562 -6.757812 47.40625 -4.875 C 45.457031 -2.988281 43.078125 -1.53125 40.265625 -0.5 C 37.453125 0.519531 34.300781 1.03125 30.8125 1.03125 C 27.320312 1.03125 24.1875 0.519531 21.40625 -0.5 C 18.632812 -1.53125 16.273438 -3.003906 14.328125 -4.921875 C 12.378906 -6.847656 10.875 -9.179688 9.8125 -11.921875 C 8.75 -14.660156 8.21875 -17.707031 8.21875 -21.0625 Z M 8.21875 -35.4375 "/></g></g></g><g fill="#ffffff" fill-opacity="1"><g transform="translate(313.363794, 87.023682)"><g><path d="M 8.21875 -35.4375 C 8.21875 -38.863281 8.675781 -41.945312 9.59375 -44.6875 C 10.519531 -47.425781 11.804688 -49.734375 13.453125 -51.609375 C 15.097656 -53.492188 17.082031 -54.945312 19.40625 -55.96875 C 21.738281 -57 24.34375 -57.515625 27.21875 -57.515625 C 31.394531 -57.515625 34.851562 -56.570312 37.59375 -54.6875 C 40.332031 -52.8125 42.148438 -50.160156 43.046875 -46.734375 L 43.859375 -46.734375 C 43.796875 -47.898438 43.726562 -49.066406 43.65625 -50.234375 C 43.519531 -51.253906 43.429688 -52.328125 43.390625 -53.453125 C 43.359375 -54.585938 43.34375 -55.601562 43.34375 -56.5 L 43.34375 -74.984375 L 52.59375 -74.984375 L 52.59375 0 L 43.859375 0 L 43.859375 -9.765625 L 43.046875 -9.765625 C 42.148438 -6.335938 40.332031 -3.679688 37.59375 -1.796875 C 34.851562 0.0859375 31.394531 1.03125 27.21875 1.03125 C 24.34375 1.03125 21.738281 0.519531 19.40625 -0.5 C 17.082031 -1.53125 15.097656 -2.988281 13.453125 -4.875 C 11.804688 -6.757812 10.519531 -9.070312 9.59375 -11.8125 C 8.675781 -14.550781 8.21875 -17.632812 8.21875 -21.0625 Z M 30.71875 -6.984375 C 34.550781 -6.984375 37.613281 -8.25 39.90625 -10.78125 C 42.195312 -13.320312 43.34375 -16.75 43.34375 -21.0625 L 43.34375 -35.4375 C 43.34375 -39.75 42.195312 -43.171875 39.90625 -45.703125 C 37.613281 -48.242188 34.550781 -49.515625 30.71875 -49.515625 C 26.539062 -49.515625 23.285156 -48.28125 20.953125 -45.8125 C 18.628906 -43.34375 17.46875 -39.882812 17.46875 -35.4375 L 17.46875 -21.0625 C 17.46875 -16.75 18.644531 -13.320312 21 -10.78125 C 23.363281 -8.25 26.601562 -6.984375 30.71875 -6.984375 Z M 30.71875 -6.984375 "/></g></g></g><g fill="#ffffff" fill-opacity="1"><g transform="translate(374.993011, 87.023682)"><g><path d="M 9.25 -56.5 L 18.484375 -56.5 L 18.484375 -19.921875 C 18.484375 -11.367188 22.5625 -7.09375 30.71875 -7.09375 C 39 -7.09375 43.140625 -11.367188 43.140625 -19.921875 L 43.140625 -56.5 L 52.390625 -56.5 L 52.390625 -19.921875 C 52.390625 -13.210938 50.519531 -8.039062 46.78125 -4.40625 C 43.050781 -0.78125 37.695312 1.03125 30.71875 1.03125 C 23.863281 1.03125 18.570312 -0.800781 14.84375 -4.46875 C 11.113281 -8.132812 9.25 -13.285156 9.25 -19.921875 Z M 9.25 -56.5 "/></g></g></g><g fill="#ffffff" fill-opacity="1"><g transform="translate(436.622252, 87.023682)"><g><path d="M 32.046875 -74.984375 L 32.046875 -16.4375 C 32.046875 -13.90625 32.726562 -11.9375 34.09375 -10.53125 C 35.46875 -9.125 37.351562 -8.421875 39.75 -8.421875 L 56.5 -8.421875 L 56.5 0 L 39.75 0 C 34.476562 0 30.332031 -1.453125 27.3125 -4.359375 C 24.300781 -7.273438 22.796875 -11.300781 22.796875 -16.4375 L 22.796875 -66.5625 L 4.109375 -66.5625 L 4.109375 -74.984375 Z M 32.046875 -74.984375 "/></g></g></g><g fill="#ffffff" fill-opacity="1"><g transform="translate(498.251447, 87.023682)"><g><path d="M 30.8125 1.03125 C 23.757812 1.03125 18.226562 -0.882812 14.21875 -4.71875 C 10.21875 -8.5625 8.21875 -13.835938 8.21875 -20.546875 L 8.21875 -35.953125 C 8.21875 -42.660156 10.21875 -47.929688 14.21875 -51.765625 C 18.226562 -55.597656 23.757812 -57.515625 30.8125 -57.515625 C 37.863281 -57.515625 43.390625 -55.597656 47.390625 -51.765625 C 51.398438 -47.929688 53.40625 -42.660156 53.40625 -35.953125 L 53.40625 -25.578125 L 17.46875 -25.578125 L 17.46875 -21.0625 C 17.46875 -16.75 18.644531 -13.359375 21 -10.890625 C 23.363281 -8.421875 26.632812 -7.1875 30.8125 -7.1875 C 33.894531 -7.1875 36.566406 -7.664062 38.828125 -8.625 C 41.085938 -9.582031 42.765625 -10.988281 43.859375 -12.84375 L 53.109375 -12.84375 C 51.941406 -8.53125 49.351562 -5.140625 45.34375 -2.671875 C 41.34375 -0.203125 36.5 1.03125 30.8125 1.03125 Z M 44.171875 -33.28125 L 44.171875 -35.953125 C 44.171875 -40.191406 43.003906 -43.476562 40.671875 -45.8125 C 38.347656 -48.144531 35.0625 -49.3125 30.8125 -49.3125 C 26.570312 -49.3125 23.285156 -48.144531 20.953125 -45.8125 C 18.628906 -43.476562 17.46875 -40.191406 17.46875 -35.953125 L 17.46875 -33.28125 Z M 44.171875 -33.28125 "/></g></g></g><g fill="#7f77dd" fill-opacity="1"><g transform="translate(559.885294, 87.023682)"><g><path d="M 21.984375 -8.109375 C 21.984375 -10.785156 22.785156 -12.925781 24.390625 -14.53125 C 26.003906 -16.144531 28.144531 -16.953125 30.8125 -16.953125 C 33.488281 -16.953125 35.628906 -16.144531 37.234375 -14.53125 C 38.847656 -12.925781 39.65625 -10.785156 39.65625 -8.109375 C 39.65625 -5.367188 38.847656 -3.160156 37.234375 -1.484375 C 35.628906 0.191406 33.488281 1.03125 30.8125 1.03125 C 28.144531 1.03125 26.003906 0.191406 24.390625 -1.484375 C 22.785156 -3.160156 21.984375 -5.367188 21.984375 -8.109375 Z M 21.984375 -8.109375 "/></g></g></g><g fill="#7f77dd" fill-opacity="1"><g transform="translate(621.514511, 87.023682)"><g><path d="M 9.765625 0 L 9.765625 -8.421875 L 30.296875 -8.421875 L 30.296875 -48.078125 L 12.328125 -48.078125 L 12.328125 -56.5 L 39.546875 -56.5 L 39.546875 -8.421875 L 56.5 -8.421875 L 56.5 0 Z M 32.359375 -78.578125 L 34.40625 -78.578125 C 36.394531 -78.578125 38.003906 -77.992188 39.234375 -76.828125 C 40.472656 -75.671875 41.09375 -74.164062 41.09375 -72.3125 C 41.09375 -70.46875 40.472656 -68.992188 39.234375 -67.890625 C 38.003906 -66.796875 36.394531 -66.25 34.40625 -66.25 L 32.359375 -66.25 C 30.367188 -66.25 28.757812 -66.78125 27.53125 -67.84375 C 26.300781 -68.90625 25.6875 -70.394531 25.6875 -72.3125 C 25.6875 -74.164062 26.300781 -75.671875 27.53125 -76.828125 C 28.757812 -77.992188 30.367188 -78.578125 32.359375 -78.578125 Z M 32.359375 -78.578125 "/></g></g></g><g fill="#7f77dd" fill-opacity="1"><g transform="translate(683.143729, 87.023682)"><g><path d="M 17.46875 -21.0625 C 17.46875 -16.75 18.644531 -13.359375 21 -10.890625 C 23.363281 -8.421875 26.632812 -7.1875 30.8125 -7.1875 C 34.925781 -7.1875 38.179688 -8.421875 40.578125 -10.890625 C 42.972656 -13.359375 44.171875 -16.75 44.171875 -21.0625 L 44.171875 -35.4375 C 44.171875 -39.75 42.972656 -43.140625 40.578125 -45.609375 C 38.179688 -48.078125 34.925781 -49.3125 30.8125 -49.3125 C 26.707031 -49.3125 23.457031 -48.078125 21.0625 -45.609375 C 18.664062 -43.140625 17.46875 -39.75 17.46875 -35.4375 Z M 8.21875 -35.4375 C 8.21875 -38.863281 8.75 -41.925781 9.8125 -44.625 C 10.875 -47.332031 12.378906 -49.644531 14.328125 -51.5625 C 16.273438 -53.476562 18.632812 -54.945312 21.40625 -55.96875 C 24.1875 -57 27.320312 -57.515625 30.8125 -57.515625 C 37.800781 -57.515625 43.3125 -55.5625 47.34375 -51.65625 C 51.382812 -47.757812 53.40625 -42.390625 53.40625 -35.546875 L 53.40625 -21.0625 C 53.40625 -17.632812 52.890625 -14.550781 51.859375 -11.8125 C 50.835938 -9.070312 49.351562 -6.757812 47.40625 -4.875 C 45.457031 -2.988281 43.078125 -1.53125 40.265625 -0.5 C 37.453125 0.519531 34.300781 1.03125 30.8125 1.03125 C 27.320312 1.03125 24.1875 0.519531 21.40625 -0.5 C 18.632812 -1.53125 16.273438 -3.003906 14.328125 -4.921875 C 12.378906 -6.847656 10.875 -9.179688 9.8125 -11.921875 C 8.75 -14.660156 8.21875 -17.707031 8.21875 -21.0625 Z M 8.21875 -35.4375 "/></g></g></g></svg>